<svg xmlns="http://www.w3.org/2000/svg" viewBox="0 0 43.439 42.366">
  <defs>
    <style>
      .github-1 {
        fill: #1b1817;
        fill-rule: evenodd;
      }
    </style>
  </defs>
  <title>GitHub</title>
  <path
    id="path16"
    class="github-1"
    d="M21.717,0a21.722,21.722,0,0,0-6.864,42.329c1.087.2,1.483-.472,1.483-1.048,0-.516-.019-1.881-.029-3.693-6.042,1.312-7.316-2.912-7.316-2.912A5.753,5.753,0,0,0,6.579,31.5c-1.972-1.347.149-1.32.149-1.32a4.56,4.56,0,0,1,3.327,2.238c1.937,3.319,5.084,2.36,6.321,1.8a4.639,4.639,0,0,1,1.379-2.9c-4.823-.55-9.894-2.412-9.894-10.735A8.4,8.4,0,0,1,10.1,14.756a7.8,7.8,0,0,1,.214-5.748s1.822-.584,5.972,2.225a20.612,20.612,0,0,1,10.874,0c4.147-2.809,5.967-2.225,5.967-2.225a7.8,7.8,0,0,1,.217,5.748,8.38,8.38,0,0,1,2.232,5.828c0,8.344-5.078,10.18-9.916,10.717a5.188,5.188,0,0,1,1.474,4.023c0,2.9-.027,5.245-.027,5.957,0,.582.392,1.258,1.493,1.046A21.723,21.723,0,0,0,21.717,0"/>
</svg>
