<svg xmlns="http://www.w3.org/2000/svg" viewBox="0 0 144 144"><defs><style>.cls-1{fill:#fff;}</style></defs><title>LinkedIn</title><g id="Layer_2" data-name="Layer 2"><g id="Layer_1-2" data-name="Layer 1"><path class="cls-1" d="M133.34,0H10.63A10.51,10.51,0,0,0,0,10.38V133.61A10.52,10.52,0,0,0,10.63,144H133.34A10.54,10.54,0,0,0,144,133.61V10.38A10.53,10.53,0,0,0,133.34,0ZM42.71,122.71H21.35V54H42.71ZM32,44.59A12.38,12.38,0,0,1,19.65,32.21h0A12.38,12.38,0,1,1,32,44.59Zm90.68,78.12H101.36V89.29c0-8-.14-18.22-11.1-18.22-11.11,0-12.82,8.68-12.82,17.64v34H56.11V54H76.59v9.39h.29c2.85-5.4,9.82-11.1,20.21-11.1,21.63,0,25.62,14.23,25.62,32.73Z"/></g></g></svg>