<svg id="Layer_1" data-name="Layer 1" xmlns="http://www.w3.org/2000/svg" xmlns:xlink="http://www.w3.org/1999/xlink" viewBox="0 0 1350 1350"><defs><style>.cls-1{fill:#fff;}.cls-2{mask:url(#mask);}.cls-3{fill:url(#radial-gradient);}.cls-4{stroke:#000;stroke-miterlimit:10;}.cls-5{fill:#c99c87;}.cls-6{fill:#d7a78c;}.cls-7{fill:#c22233;}.cls-8{fill:#1c1c1c;}.cls-9{fill:#d3223c;}.cls-10{fill:#c63140;}.cls-11{fill:#614a2d;}</style><mask id="mask" x="-533.44" y="-139.52" width="2498.87" height="3072.04" maskUnits="userSpaceOnUse"><circle class="cls-1" cx="675" cy="675" r="675"/></mask><radialGradient id="radial-gradient" cx="793.34" cy="1172.9" fx="526.8612644474467" fy="881.7386413987052" r="1468.39" gradientTransform="matrix(1, -0.01, 0.01, 1.81, -13.12, -945.52)" gradientUnits="userSpaceOnUse"><stop offset="0.05" stop-color="#456aff"/><stop offset="0.24" stop-color="#4465fb"/><stop offset="0.46" stop-color="#4058ee"/><stop offset="0.68" stop-color="#3942d8"/><stop offset="0.91" stop-color="#2f23bb"/><stop offset="1" stop-color="#2b15ad"/></radialGradient></defs><title>Digital</title><g class="cls-2"><g id="Digital_Work" data-name="Digital Work"><rect class="cls-3" x="-533.44" y="-139.52" width="2498.87" height="3072.04"/><polygon id="Darkness_Behind_Neck" data-name="Darkness Behind Neck" class="cls-4" points="924.5 800 867.5 826 503.5 895 511.5 1012 975.5 891 981.5 853 953.15 800 924.5 800"/><path id="Neck" class="cls-5" d="M515,891.26S522.5,945,527.5,965s-8,79-6,92,0,65,34,76,200,77,256,7,131-88,139-142,30-118,15-124-54-12-58-45-9-147-9-156,2-26,2-31-17.4-15.56-17.4-15.56S497.59,715.52,515,891.26Z"/><path id="Ear" class="cls-6" d="M899,660.5c13-5,19-12,23-20s17-41,12-54-27-36-37-34-23,21-25,43S886,665.5,899,660.5Z"/><path id="Undershirt" class="cls-4" d="M675.5,1143c54.93,3.33,167-59,193-86s74-84,74-84,20,237-15,285-183,154-232,159-203-59-210-80-56-188-38-213,70-47,70-47S543.5,1135,675.5,1143Z"/><path id="Shirt" class="cls-7" d="M502.5,883s-147,51-194,69-82,30-96,40c-4.21,3-10.05,8.87-16,13-13.85,9.6-29.91,19.21-39,29-13,14-22,25-27,30s-14,14-18,22-13,30-16,39-40,87-52,133c-6.52,25-10.74,53.34-17,78-5.26,20.72-13.09,39.52-14,45-2,12-1,11-2,15s-4,15-6,20-2,12-5,17-7,14-7,17-1,39,3,55,18,91,67,117,113,43,163,6c10-8,24-18,27-18s12-1,12,2-4,22-2,28c.79,2.39,1.77,14.09,6,22,1.22,2.29,6.6,3.93,8,6,5.92,8.81,8.49,16.08,8,19-1,6-1,7-1,17s16,86,16,101-7,82-7,124c0,16,11,27,11,32s-54,122-61,151c-3.91,16.2-3.82,47.18-3,76,.64,22.79,1.88,44.41,1,55-2,24-9,76-5,83s138,137,282,171,258,76,479,39c43.74-6.35,56.64-5.32,74-9,29.06-6.16,45.23-15.24,54-19,14-6,68-19,83-20s26-3,33-5,22-15,28-18,13-3,23-10,70-78,77-80,26-2,29-25-1-30-3-35-7-31-7-49,7-57,7-73-4-38-4-55,2-68,2-86-9-325-9-325,13,20,20,30,22,24,24,27,8,24,14,30,12,9,15,13,18,12,46,7,72-9,153-51,111-61,118-69,15-35,16-42,7-21,1-34-15-16-17-21-8-34-20-58-74-143-92-173-85-127-89-141-15-40-25-53-24-26-25-31-16-20-17-24-6-18-12-24-7-11-14-9c0,0-8-10-12-14s-19-18-24-18-17-5-21-7-142-94-230-119a1407.91,1407.91,0,0,1-161-57L961,1126.5l-245,162-56,18-77-119-65-108Z"/><path id="Collar_Interior" data-name="Collar Interior" class="cls-8" d="M549.42,1091.52a2.94,2.94,0,0,0-5-.65c-7,9-23,31.53-19.9,44.13,4,16,26,31,26,31s2,14,5,17,18,19,22,23,26,85,28,121,0,112,0,112,14-63,40-86,97-94,206-107c0,0,8-22,7-28s-4-26-4-34-8-50-4-59c0,0-16,10-40,34-9.43,9.43-37.67,33.8-61,56-36.08,34.35-73,72-73,72s-34-62-55-86-31-37-32-38-6-5-6-5-4-9-7-10-7-6-8-10C567.69,1134.77,554.44,1103.39,549.42,1091.52Z"/><path id="Right_Collar" data-name="Right Collar" class="cls-9" d="M867,1207.5c3-3,10.5-4.5,33.5-11.5s51-1,67,0,37,2,60,2,73,7,73,7,10-2,13-35c5-37-5-213-8-232s-15-29-21-35-8-14-13-18c-2.17-1.73-6-2.33-10-5-5.26-3.47-10.8-8.93-12.5-9.5-3-1-10-10-16-17s-18-10-25-14-16-21-22-34-21-22-24-23c0,0-16.5-11.5-4.5,51.5s-14,95-20,112-69,154-80,171-9.5,19.5-9.5,37.5,6,37,7,41Z"/><path id="Left_Collar" data-name="Left Collar" class="cls-9" d="M460.5,941s-31,41-35,49-14,19-18,28-8,14-11,19-13,15-12,18-6,9-12,15-21,16-14,25,32,9,37,10c2.25.45,19.82,6,39,4,23.42-2.44,49.9-12.55,62-12,22,1,26,22,26,22s10-9,14-18,8-25,6-39-11-67-17-90-8-59-8-59l3-42s-18-5-20,3-12,30-16,35S460.5,941,460.5,941Z"/><path id="Right_Collar-2" data-name="Right Collar" class="cls-10" d="M868,1205.5c-3,3-2.5,34.5-13,43S749.5,1289,737.5,1305s-26,64-29,81-5,106-8,122-6,43-11,46-87-3-93-6,6-98,15-129,30.19-73.58,64.5-95.5c36-23,61-45,79-52s85-26,90-32,11-43,10-47Z"/><path id="Button" class="cls-8" d="M658,1374.5c8,0,24-8,24-18s-8-12-9-12-23,30-23,30Z"/><path id="Head" class="cls-6" d="M598.5,944s67-5,142-67,111-78,130-171,12-106,12-106,33-247-51-301-386-17-403,28-42,142-41,165,6,71,6,83,0,31,1,42,6,31,6,38c0,0-1,30,15,68s16,44,26,61,32,51,41,61,32,45,40,58S562.5,946,598.5,944Z"/><path id="Hair" class="cls-11" d="M311,569.1c4.67-2.23,11-5.6,18-14.6s13-22,16-31,3-24,3-24l-20,24s0-10-2-13-14-8-13-12,9-9,10-14-4-22-6-25-3-20-3-20-6-7-3-13,7-3,8-16,4-26,7-31c1.77-2.95,4-10.11,3-16a54.62,54.62,0,0,0-3-11c-2-4-1-15,4-23s22-35,26-43,4-17,8-23,11-9,12-13c.46-1.85,2.25-8.16,1-11-1.45-3.28-9-3-9-3l1-3s9,2,10,0,10-14,6-16,5-11,8-15,70-87,130-107,108-15,121-8,37,26,47,27,48-6,61-4,77,20,111,47,55,70,66,89,13,19,13,19-3,11,1,14c0,0,13,15,16,18s6,21,10,24,18,21,22,25-14-3-17-5,12,13,15,18,6,20,6,27,5,21,8,24,14,22,14,22l-8-2s1,17,3,20-3,26-1,32,2,16,3,20,8,18,9,22,5,7,7,10-1,8-2,9,9,0,11-1,2,5,0,6-6,0-6,3,3,5,7,5,7,3,6,4l-6,6,15,1-5,5-13,4s-2,7,3,5,13-3,13-2-8,12-12,13,9,1,11,2-10,3-12,6-2,8,2,9,11,3,12,4-10,3-10,5,10,1,11,3-9,1-8,4,1,7,7,8-4,4-8,6-17,4-11,6,24,4,23,8-15,12-19,14c-4.26,2.13-11.93,5.4-9.7,13.42a46.72,46.72,0,0,1,1.58,18.43c-.88,6.87-.92,15.39-1.88,21.15-1,6,2,21,0,27s-23,40-37,43-23,17-24,20-13,17-19,17-16-8-18-9,3,9,1,13-10,12-13,13-10-7-12-12c-1-2.55-6.72-46-9-89-2.19-41.18,2-93,2-109-15-7-30,10-36,5s-6-19-9-24-9-19-17-24-35-35-46-72-18-76-18-82-23,3-23,3c-15,0-28-2-13-23,5.79-5.61,12-22,12-32s5-32,5-32S738.5,399,683.5,408s-65.13-3.38-118,8c-58.63,12.63-62,2-76.5,7.5S467.5,450,449.5,457,413,487.5,389,485.5c0,0,2,24,4,32s2,44,2,53,0,46,2,53,4,22,4,30,4,32,6,37,6,23,9,29,8,23,12,31,14,40,63,105c0,0-2,3-8,0a10.66,10.66,0,0,1-6-9,25.8,25.8,0,0,1-11-10s-6-7-6-10-5-14-9-13-6-3-6-3,2-5,1-8-2-8-7-11-6-6-9-5-6-8-4-11-2-14-2-14l-4-9-1,19s-4-16-4-22,0-14-4-16-19.68,40.62-61-1c30.07-1.83,38.49-22.67,38.49-22.67S376,720.5,347,723.5c33-8,44-37,46-42,0,0-23,34-51,26,31-7,46-34,46-34S375.26,687.2,368.56,689C377.83,679.4,383,666.5,383,666.5s-10,15-19,20-21,5-20,4c19-17,21-28,21-28s-16,28-39,9c33-10,31-37,31-37s-11.35,38.88-49.35,25.88c36-9,25.35-22.88,25.35-22.88s-20.62,17.45-41.52-2.88c24.43,5,25.28-2.45,25.28-2.45s-12.81,7.73-22.18-4.88c23.05,1.87,56.34-12.79,44.42-33.79-2.95-3.78-20.29,23.21-50.13,4.68,9.18,1.69,18.52-1.25,18.52-1.25S295,596.28,287,589.5c15.35,3.35,22.17-2,22.17-2s-9,.46-20.67-8.32C301.44,582.61,306.33,571.34,311,569.1Z"/><path id="Left_Brow" data-name="Left Brow" class="cls-11" d="M448,500.5c7,.73,29,1,32-5s-13-17-36-14-56,18-56,18v19S403,496.5,448,500.5Z"/><path id="Right_Brow" data-name="Right Brow" class="cls-11" d="M611.5,457s24-10,66-10,59,5,67,12,26,35,26,35-41-35-96-25-74,15-78,3S605,458.5,611.5,457Z"/></g></g><path class="cls-1" d="M675,24a647.8,647.8,0,0,1,364,111.17,653,653,0,0,1,235.89,286.44,650.07,650.07,0,0,1-60,617.35,653,653,0,0,1-286.44,235.89,650.07,650.07,0,0,1-617.35-60A653,653,0,0,1,75.15,928.39a650.07,650.07,0,0,1,60-617.35A653,653,0,0,1,421.61,75.15,646.87,646.87,0,0,1,675,24m0-24C302.21,0,0,302.21,0,675s302.21,675,675,675,675-302.21,675-675S1047.79,0,675,0Z"/></svg>