<svg xmlns="http://www.w3.org/2000/svg" viewBox="0 0 250 203.07">
  <title>Twitter</title>
  <path
    d="M78.6,203.07c94.3,0,145.9-78.2,145.9-145.9,0-2.2,0-4.4-.1-6.6A107.27,107.27,0,0,0,250,24.07a103.93,103.93,0,0,1-29.5,8.1A51.23,51.23,0,0,0,243,3.77a101,101,0,0,1-32.6,12.4A51.34,51.34,0,0,0,123,63,146.28,146.28,0,0,1,17.4,9.27a51.34,51.34,0,0,0,15.9,68.5A50.26,50.26,0,0,1,10,71.37V72a51.36,51.36,0,0,0,41.2,50.3,50.55,50.55,0,0,1-23.2.9,51.29,51.29,0,0,0,47.9,35.6,103,103,0,0,1-63.7,22c-4.1,0-8.2-.3-12.2-.7a146,146,0,0,0,78.6,23"/>
</svg>
