<?xml version="1.0" encoding="utf-8"?>
<!-- Generator: Adobe Illustrator 23.0.1, SVG Export Plug-In . SVG Version: 6.00 Build 0)  -->
<svg version="1.1" id="Layer_1" xmlns="http://www.w3.org/2000/svg" xmlns:xlink="http://www.w3.org/1999/xlink" x="0px" y="0px"
	 viewBox="0 0 95 95" style="enable-background:new 0 0 95 95;" xml:space="preserve">
<style type="text/css">
	.st0{fill:#FFFFFF;}
</style>
<title>StackOverflow</title>
<path class="st0" d="M71.9,81.3V58.1h7.7V89H10.1V58.1h7.7v23.2H71.9z"/>
<path class="st0" d="M26.3,55.9l37.8,7.9l1.6-7.6l-37.8-7.9L26.3,55.9z M31.3,37.9l35,16.3l3.2-7l-35-16.4
	C34.5,30.8,31.3,37.9,31.3,37.9z M41,20.7l29.7,24.7l4.9-5.9L45.9,14.8C45.9,14.8,41,20.7,41,20.7z M60.2,2.4L54,7l23,31l6.2-4.6
	L60.2,2.4z M25.5,73.5h38.6v-7.7H25.5V73.5z"/>
</svg>
