<svg id="Logo_FIXED" data-name="Logo FIXED" xmlns="http://www.w3.org/2000/svg" viewBox="0 0 250 250">
  <defs>
    <style>
      .twitter-1 {
        fill: #1da1f2;
      }
    </style>
  </defs>
  <title>Twitter</title>
  <path
    class="twitter-1"
    d="M78.6,226.6c94.3,0,145.9-78.2,145.9-145.9,0-2.2,0-4.4-.1-6.6A107.414,107.414,0,0,0,250,47.6a104.261,104.261,0,0,1-29.5,8.1A51.248,51.248,0,0,0,243,27.3a100.9,100.9,0,0,1-32.6,12.4A51.336,51.336,0,0,0,123,86.5,146.3,146.3,0,0,1,17.4,32.8a51.347,51.347,0,0,0,15.9,68.5A50.268,50.268,0,0,1,10,94.9v.6a51.368,51.368,0,0,0,41.2,50.3,50.571,50.571,0,0,1-23.2.9,51.307,51.307,0,0,0,47.9,35.6,102.985,102.985,0,0,1-63.7,22c-4.1,0-8.2-.3-12.2-.7a145.949,145.949,0,0,0,78.6,23"/>
</svg>
