<svg id="Layer_1" data-name="Layer 1" xmlns="http://www.w3.org/2000/svg" xmlns:xlink="http://www.w3.org/1999/xlink" viewBox="0 0 250 250"><defs><style>.cls-1,.cls-6{fill:none;stroke-width:0.878px;}.cls-1{stroke:#231f20;}.cls-2{clip-path:url(#clip-path);}.cls-3{fill:#ff0;}.cls-3,.cls-4,.cls-5,.cls-6,.cls-7,.cls-8{stroke:#000;stroke-miterlimit:10;}.cls-3,.cls-8{stroke-width:0.686px;}.cls-4{stroke-width:0.496px;}.cls-5{fill:#f5f5f5;stroke-width:0.78px;}.cls-7{stroke-width:1.177px;}.cls-8{fill-rule:evenodd;}</style><clipPath id="clip-path"><circle class="cls-1" cx="125" cy="122.217" r="79.047"/></clipPath></defs><title>Bee</title><g class="cls-2"><rect class="cls-3" x="15.212" y="12.429" width="219.576" height="219.576"/><rect class="cls-4" x="15.212" y="12.429" width="219.576" height="21.958"/><rect class="cls-4" x="15.212" y="56.344" width="219.576" height="21.958"/><rect class="cls-4" x="15.212" y="100.26" width="219.576" height="21.958"/><rect class="cls-4" x="15.212" y="144.175" width="219.576" height="21.958"/><rect class="cls-4" x="15.212" y="188.09" width="219.576" height="21.958"/></g><circle class="cls-1" cx="125" cy="122.217" r="79.047"/><path class="cls-5" d="M58.924,122.217a81.4,81.4,0,0,1,9.458-38.43,89.364,89.364,0,0,0-9.254-.481C26.577,83.306.19,100.727.19,122.217s26.387,38.912,58.938,38.912a89.364,89.364,0,0,0,9.254-.481A81.409,81.409,0,0,1,58.924,122.217Z"/><path class="cls-5" d="M190.872,83.306a89.364,89.364,0,0,0-9.254.481,82.806,82.806,0,0,1,0,76.861,89.364,89.364,0,0,0,9.254.481c32.551,0,58.938-17.421,58.938-38.912S223.423,83.306,190.872,83.306Z"/><path class="cls-6" d="M91.185,50.747V43.609A17.566,17.566,0,0,0,73.619,26.043h0"/><circle class="cls-7" cx="73.619" cy="26.043" r="6.941"/><path class="cls-6" d="M158.815,50.747V43.609a17.566,17.566,0,0,1,17.566-17.566h0"/><circle class="cls-7" cx="176.381" cy="26.043" r="6.941"/><polygon class="cls-8" points="125 195.771 147.395 198.048 136.197 214.741 125 233.711 113.803 214.741 102.605 198.048 125 195.771"/></svg>