<svg id="Layer_1" data-name="Layer 1" xmlns="http://www.w3.org/2000/svg" xmlns:xlink="http://www.w3.org/1999/xlink" viewBox="0 0 1350 1350"><defs><style>.cls-1{fill:#fff;}.cls-2{mask:url(#mask);}</style><mask id="mask" x="-484" y="-103.5" width="2400" height="3000" maskUnits="userSpaceOnUse"><circle class="cls-1" cx="675" cy="675" r="675"/></mask></defs><title>Real</title><g class="cls-2"><image id="Image" width="2400" height="3000" transform="translate(-484 -103.5)" xlink:href="../../../../../Google%20Drive/Photographs/Graduation%20Portraits/148-981-5660_3fg2_70.jpg"/></g><path class="cls-1" d="M675,24a647.8,647.8,0,0,1,364,111.17,653,653,0,0,1,235.89,286.44,650.07,650.07,0,0,1-60,617.35,653,653,0,0,1-286.44,235.89,650.07,650.07,0,0,1-617.35-60A653,653,0,0,1,75.15,928.39a650.07,650.07,0,0,1,60-617.35A653,653,0,0,1,421.61,75.15,646.87,646.87,0,0,1,675,24m0-24C302.21,0,0,302.21,0,675s302.21,675,675,675,675-302.21,675-675S1047.79,0,675,0Z"/></svg>