<svg id="Layer_1" data-name="Layer 1" xmlns="http://www.w3.org/2000/svg" viewBox="0 0 144.004 143.939">
  <defs>
    <style>
      .linked-1 {
        fill: #0065a1;
      }
      .linked-2 {
        fill: #fff;
      }
    </style>
  </defs>
  <title>LinkedIn</title>
  <path class="linked-1" d="M133.344-.06H10.628A10.51,10.51,0,0,0,0,10.316V133.551a10.516,10.516,0,0,0,10.628,10.388H133.344A10.537,10.537,0,0,0,144,133.551V10.316A10.53,10.53,0,0,0,133.344-.06Z"/>
  <path class="linked-2" d="M21.349,53.925H42.708v68.721H21.349ZM32.034,19.766A12.383,12.383,0,1,1,19.648,32.145,12.388,12.388,0,0,1,32.034,19.766"/>
  <path class="linked-2" d="M56.106,53.925H76.59v9.391h.287c2.851-5.4,9.818-11.1,20.209-11.1,21.629,0,25.621,14.234,25.621,32.734v37.7H101.363V89.226c0-7.968-.146-18.219-11.1-18.219-11.113,0-12.819,8.681-12.819,17.643v34H56.106Z"/>
</svg>
